<?xml version="1.0" encoding="utf-8"?>
<!-- Generator: Adobe Illustrator 22.0.1, SVG Export Plug-In . SVG Version: 6.00 Build 0)  -->
<svg version="1.1" id="Layer_1" xmlns="http://www.w3.org/2000/svg" xmlns:xlink="http://www.w3.org/1999/xlink" x="0px" y="0px"
	 width="300px" height="156.9px" viewBox="0 0 300 156.9" style="enable-background:new 0 0 300 156.9;" xml:space="preserve">
<style type="text/css">
	.st0{fill:#272C4A;}
	.st1{fill:#AA9095;}
	.st2{fill:none;stroke:#25304C;stroke-width:0.157;stroke-miterlimit:10;}
</style>
<g>
	<g>
		<path class="st0" d="M244.1,85.3c-3.4,0-6.1-2.7-6.1-6.1c0-3.4,2.7-6.1,6.1-6.1s6.1,2.7,6.1,6.1C250.2,82.6,247.5,85.3,244.1,85.3
			 M257.1,61.9l-2-4.8c-7.9-16.4-24.7-27.7-44.2-27.7c-27.1,0-49.1,21.9-49.1,49s21.9,49.1,49,49.1c18.4,0,34.3-10,42.8-24.9
			c0.6-1.1,1.2-2.1,1.6-3.2c3.1-6.4,4.7-13.4,4.7-21C260,72.7,258.9,67.1,257.1,61.9"/>
		<path class="st1" d="M169.8,98.9c0,0-0.2-0.4-0.6-1.1c-0.2-0.4-0.5-0.8-0.7-1.3c-0.2-0.6-0.6-1.2-0.8-1.9
			c-0.6-1.4-1.3-3.2-1.8-5.3c-0.6-2.1-0.9-4.5-1.2-7.2c-0.2-2.7-0.2-5.5,0.1-8.6s0.9-6.2,2-9.4c1.1-3.2,2.4-6.4,4.1-9.4
			s3.9-6,6.5-8.6c1.2-1.3,2.6-2.5,4-3.7c1.4-1.2,2.8-2.2,4.4-3.2c1.5-0.9,3.1-1.9,4.6-2.6c1.5-0.8,3.2-1.4,4.7-2
			c3.2-1.2,6.4-1.9,9.4-2.2c3.1-0.4,6-0.5,8.6-0.2c5.3,0.4,9.7,1.6,12.5,2.7c1.4,0.6,2.5,1.1,3.3,1.4c0.7,0.4,1.2,0.6,1.2,0.6
			s-0.4-0.1-1.2-0.5c-0.8-0.2-1.9-0.7-3.4-1.1c-1.4-0.4-3.3-0.8-5.3-1.2c-2.1-0.4-4.5-0.6-7.1-0.6s-5.4,0.2-8.2,0.7
			c-2.9,0.5-5.9,1.3-8.8,2.5s-5.9,2.7-8.7,4.5c-1.4,0.9-2.8,1.9-4,3.1c-1.3,1.1-2.6,2.2-3.8,3.5c-2.4,2.5-4.4,5.2-6.1,8
			c-1.6,2.8-3.2,5.9-4.1,9c-1.1,3.1-1.8,6-2.2,9c-0.5,2.9-0.6,5.7-0.6,8.2c0,2.6,0.4,4.9,0.7,7.1c0.4,2.1,0.8,3.9,1.3,5.3
			c0.2,0.7,0.5,1.4,0.6,1.9c0.2,0.6,0.4,1.1,0.5,1.4C169.7,98.5,169.8,98.9,169.8,98.9"/>
		<path class="st1" d="M291.7,94.6L291.7,94.6c5.9-10.7,3.8-23.9-5.2-32.2c-4.7-4.4-10.7-6.8-17.1-6.9c-4.9-0.1-9.8,1.1-14,3.7
			c-2.2,1.3-4.2,2.9-6,4.8c-2.7,2.9-4.7,6.5-5.9,10.4c-0.8,2.9-1.2,6-1.1,9.2c0.9,0.5,2,0.6,2.9,0.2c-0.2-2.7,0-5.5,0.8-8.1l0,0
			v-0.2c0-0.1,0.1-0.4,0.1-0.5v-0.1c0.1-0.2,0.2-0.6,0.4-0.8c0.1-0.2,0.2-0.5,0.4-0.8l0,0l0,0l0.1-0.4l0,0c0,0,0-0.1,0.1-0.1l0,0
			c0.1-0.2,0.2-0.5,0.4-0.7l0,0l0,0v-0.1l0,0l0.1-0.4l0,0c0,0,0-0.1,0.1-0.1l0,0l0.1-0.4l0,0c0,0,0-0.1,0.1-0.1l0,0l0.1-0.4l0,0
			l0.1-0.1l0,0l0.1-0.2l0,0c0.8-1.4,1.9-2.8,3.1-4.1l0,0c0.4-0.4,0.7-0.8,1.2-1.2l0,0c0.2-0.2,0.6-0.6,1.1-0.9
			c0.1-0.1,0.1-0.1,0.2-0.2l0.1-0.1c0.2-0.2,0.6-0.5,0.8-0.6l0.1-0.1c0.1-0.1,0.1-0.1,0.2-0.2c0.5-0.4,0.8-0.6,1.2-0.8
			c0,0,0.1-0.1,0.2-0.1c0,0,0.1,0,0.1-0.1c3.8-2.2,8.1-3.4,12.6-3.3c5.7,0.1,11.1,2.4,15.2,6.2c8.2,7.7,9.9,20,3.9,29.4l1.2,7.8
			l-7.5-1.1c-4.1,2.8-9.1,4.4-14.1,4.2c-4.2-0.1-8.4-1.4-12-3.8l-1.5,2.6c4,2.6,8.6,4,13.4,4.1c5.2,0.1,10.4-1.3,14.7-4h0.1h0.1
			l10.8,1.6L291.7,94.6z"/>
	</g>
	<polygon class="st1" points="193.9,63.3 198.5,63.3 198.5,97.8 203.5,97.8 203.5,59.1 193.9,59.1 	"/>
	<polygon class="st2" points="193.9,63.3 198.5,63.3 198.5,97.8 203.5,97.8 203.5,59.1 193.9,59.1 	"/>
	<polygon class="st1" points="210.1,59.1 210.1,63.3 214.7,63.3 214.7,97.8 219.5,97.8 219.5,59.1 	"/>
	<polygon class="st2" points="210.1,59.1 210.1,63.3 214.7,63.3 214.7,97.8 219.5,97.8 219.5,59.1 	"/>
	<g>
		<path class="st1" d="M147.4,91.6v-2.9h-13v-8.7h10.5V77h-10.5v-8.4h12.5v-2.9H131v25.9H147.4z M123.6,65.7h-3.4v25.9h3.4V65.7z
			 M106.1,68.6c3.4,0,5.4,1.9,5.4,4.9c0,3.2-1.9,4.9-5.1,4.9h-4.7v-10h4.4V68.6z M106.2,81.6c5.5,0,8.8-2.9,8.8-7.9
			c0-4.9-3.3-7.9-8.8-7.9h-7.9v25.9h3.4v-10h4.5V81.6z M77.8,83c1.8-4,3.1-7.1,4.5-10.7C83.7,75.9,85,79,86.7,83H77.8z M70.4,91.6
			H74l2.5-5.8H88l2.6,5.8h3.7L82.4,65.3h-0.1L70.4,91.6z M58.6,68.6c3.7,0,5.8,1.9,5.8,4.9c0,3.2-2,4.9-5.4,4.9h-5.1v-10h4.7V68.6z
			 M50.3,65.7v25.9h3.4V81.4h5.4l5.3,10.1h3.9l-5.9-10.7c2.8-0.8,5.3-3.4,5.3-7.3c0-4.9-3.4-7.9-9.1-7.9
			C58.7,65.7,50.3,65.7,50.3,65.7z M44.9,91.6v-2.9H32v-8.7h10.5V77H32v-8.4h12.5v-2.9H28.6v25.9H44.9z M24.2,68.6v-2.9H5v2.9h7.9
			v23h3.4v-23H24.2z"/>
	</g>
</g>
</svg>
